<?xml version="1.0" encoding="utf-8"?>
<!-- Generator: Adobe Illustrator 23.0.2, SVG Export Plug-In . SVG Version: 6.00 Build 0)  -->
<svg version="1.1" id="Layer_1" xmlns="http://www.w3.org/2000/svg" xmlns:xlink="http://www.w3.org/1999/xlink" x="0px" y="0px"
	 viewBox="0 0 32 32" style="enable-background:new 0 0 32 32;" xml:space="preserve">
<style type="text/css">
	.st0{fill:#F98950;}
	.st1{fill:#E25100;}
	.st2{fill:#FFFFFF;}
</style>
<title>android</title>
<g id="Traffic_Camera">
	<polygon class="st0" points="16,19.4 24.4,-0.1 7.6,-0.1 	"/>
</g>
<g>
	<circle class="st1" cx="16" cy="16" r="10"/>
	<path class="st2" d="M12.5,16v-6c0-0.3,0.1-0.7,0.4-0.8c0.1-0.1,0.3-0.1,0.4-0.1h5.7c0.4,0,0.8,0.3,0.9,0.7c0,0.1,0,0.1,0,0.2
		c0,4.1,0,8.1,0,12.2c0,0.4-0.2,0.8-0.6,0.9c-0.1,0-0.2,0-0.3,0c-1.9,0-3.8,0-5.7,0c-0.5,0-0.9-0.4-0.9-0.8c0,0,0,0,0-0.1
		C12.5,20.1,12.5,18,12.5,16z M19.3,10.7h-6.1v10h6.1L19.3,10.7z M15.6,21.9c0,0.4,0.2,0.7,0.6,0.7s0.7-0.2,0.7-0.6
		c0-0.1,0-0.1,0-0.2c0-0.4-0.4-0.6-0.7-0.6C15.8,21.3,15.6,21.6,15.6,21.9z"/>
</g>
</svg>
