<svg xmlns="http://www.w3.org/2000/svg" viewBox="0 0 32 32"><defs><style>.cls-1{fill:#d36900;}.cls-2{fill:#fff;}</style></defs><title>bouy</title><g id="Layer_2" data-name="Layer 2"><circle class="cls-1" cx="16" cy="15" r="10"/><path class="cls-2" d="M20.69,18.57c.25-.14.51-.26.74-.42a.48.48,0,0,1,.61,0,7.47,7.47,0,0,0,1.16.49c.21.08.43.14.39.41s-.3.33-.53.25c-.45-.14-.88-.32-1.39-.5-1.57.74-2.34.74-3.67-.06a3.18,3.18,0,0,1-3.76,0,3.11,3.11,0,0,1-3.66.06c-.51.19-1,.37-1.42.52-.22.07-.45,0-.51-.24s.15-.34.37-.42a8.4,8.4,0,0,0,1.19-.52.48.48,0,0,1,.58,0,7.18,7.18,0,0,0,.75.43c-.16-.78-.31-1.53-.46-2.28l0-.19c-.06-.7,0-.78.71-.78s.72,0,.94-.7.47-1.64.75-2.44a5.16,5.16,0,0,0,.3-2.06c0-.38,0-.77,0-1.21h1V8.2a1.34,1.34,0,1,1,2.67,0c0,.21,0,.42,0,.67h1c0,.64,0,1.24,0,1.84a3.76,3.76,0,0,0,.14.88c.32,1.1.67,2.2,1,3.3.09.3.21.45.54.4a4,4,0,0,1,.49,0c.48,0,.6.08.53.57-.11.8-.31,1.59-.47,2.38a2.34,2.34,0,0,1-.09.24ZM11.77,16a6,6,0,0,0,.6,2.54.32.32,0,0,0,.3.12,6.6,6.6,0,0,0,1.24-.47.53.53,0,0,1,.67,0,2.58,2.58,0,0,0,3.08,0c.26-.19.43-.14.7,0a7,7,0,0,0,1.21.45.32.32,0,0,0,.3-.12,6.11,6.11,0,0,0,.6-2.54ZM19,15.29a.39.39,0,0,0,0-.16c-.33-1.11-.68-2.22-1-3.33-.06-.22-.19-.23-.36-.23-1,0-2,0-3,0-.27,0-.36.1-.43.34-.27.92-.56,1.84-.84,2.76-.06.19-.11.39-.17.62Zm-4.56-4.4h3.35V9.57H14.44Zm2.36-2c0-.43.14-.88-.27-1.21a.62.62,0,0,0-.77,0c-.47.31-.31.79-.33,1.25Z"/><path class="cls-2" d="M23.26,21.1c-.48-.2-.9-.39-1.33-.55a.53.53,0,0,0-.39,0,3.1,3.1,0,0,1-3.34,0,.48.48,0,0,0-.39,0,3.13,3.13,0,0,1-3.38,0,.48.48,0,0,0-.39,0,3.1,3.1,0,0,1-3.34,0,.53.53,0,0,0-.39,0c-.4.13-.79.3-1.19.43a.32.32,0,0,1-.47-.24c-.05-.24.12-.32.34-.4.43-.15.83-.37,1.26-.53a.6.6,0,0,1,.49,0,2.6,2.6,0,0,0,3.24,0,.42.42,0,0,1,.54,0,2.57,2.57,0,0,0,3.2,0,.41.41,0,0,1,.56,0,2.63,2.63,0,0,0,3.18,0,.64.64,0,0,1,.49-.05,10.89,10.89,0,0,1,1.36.58c.12.06.28.23.27.33S23.39,20.94,23.26,21.1Z"/></g></svg>