<svg xmlns="http://www.w3.org/2000/svg" viewBox="0 0 32 32"><defs><style>.cls-1{fill:#d62b2b;}.cls-2{fill:#fff;}</style></defs><title>streamGauge</title><g id="Layer_3" data-name="Layer 3"><circle class="cls-1" cx="16" cy="15" r="10"/><path class="cls-2" d="M14.55,13.71a1.93,1.93,0,0,1-1.92-.4,1.72,1.72,0,0,1-2.34.1,11.48,11.48,0,0,1-1.16.4.51.51,0,0,1-.41-.23c-.07-.24.15-.25.34-.31a2.83,2.83,0,0,0,.84-.4.43.43,0,0,1,.59,0,1.21,1.21,0,0,0,1.88-.09c.19-.18.35-.22.53,0a1.19,1.19,0,0,0,1.93,0c.16-.23.34-.18.51,0a1.16,1.16,0,0,0,1.8.13.45.45,0,0,1,.68,0,1.17,1.17,0,0,0,1.82-.11c.22-.21.37-.2.59,0a1.16,1.16,0,0,0,1.87,0c.18-.2.3-.2.52,0a8.57,8.57,0,0,0,.89.51,2.35,2.35,0,0,1,.33.3c-.14.08-.31.24-.43.22a9.28,9.28,0,0,1-1.12-.38,1.77,1.77,0,0,1-2.38-.1,1.72,1.72,0,0,1-2.38,0c-.77.26-.32.92-.5,1.41H15.79c-.16.26-.07.33.17.33H17V17H16c-.25,0-.31.1-.23.35h1.31v1.84c-.37,0-.74,0-1.1,0-.09,0-.16.11-.24.16.08.06.16.16.24.16.35,0,.71,0,1.09,0v1.84H14.55Z"/><path class="cls-2" d="M14.57,8.53h2.48v1.83H15.76c-.1.26-.06.38.21.38h1.1c0,.54,0,1,0,1.53a.39.39,0,0,1-.18.26,1.2,1.2,0,0,1-1.33-.09c-.5-.42-.5-.42-1,0Z"/><path class="cls-2" d="M23.42,15.48a1.48,1.48,0,0,1-2-.07c-1.05.53-1.13.53-2,.06a7.42,7.42,0,0,1-1,.33c-.1,0-.23-.13-.36-.2a1.32,1.32,0,0,1,.3-.24,7.5,7.5,0,0,0,.7-.33.37.37,0,0,1,.52,0c.65.48,1,.46,1.56-.07.17-.14.29-.18.47,0,.62.58,1,.57,1.62,0,.16-.15.26-.12.43,0s.51.27.76.42a2,2,0,0,1,.26.24c-.11.08-.23.23-.32.21C24.1,15.73,23.8,15.6,23.42,15.48Z"/><path class="cls-2" d="M12.4,15.49a1.5,1.5,0,0,1-2-.11,1.44,1.44,0,0,1-1.92.12c-.07,0-.21,0-.3.06a7.07,7.07,0,0,1-.74.24c-.1,0-.22-.12-.33-.19a1.1,1.1,0,0,1,.28-.25,5,5,0,0,0,.7-.33.38.38,0,0,1,.55,0c.6.46.95.43,1.53-.08.19-.16.31-.18.5,0a1,1,0,0,0,1.59,0c.16-.16.26-.13.43,0s.54.28.8.44a1.2,1.2,0,0,1,.23.22c-.09.08-.19.23-.27.22C13.12,15.72,12.79,15.61,12.4,15.49Z"/></g></svg>