<?xml version="1.0" encoding="utf-8"?>
<!-- Generator: Adobe Illustrator 23.0.2, SVG Export Plug-In . SVG Version: 6.00 Build 0)  -->
<svg version="1.1" id="Traffic_Camera" xmlns="http://www.w3.org/2000/svg" xmlns:xlink="http://www.w3.org/1999/xlink" x="0px"
	 y="0px" viewBox="0 0 32 32" style="enable-background:new 0 0 32 32;" xml:space="preserve">
<style type="text/css">
	.st0{fill:#00384C;}
	.st1{fill:#005B8E;}
	.st2{fill:#FFFFFF;}
</style>
<title>trafficCam</title>
<polygon class="st0" points="16,19.6 24.4,0.1 7.6,0.1 "/>
<circle class="st1" cx="16" cy="15" r="10"/>
<g id="nv84ZM">
	<path class="st2" d="M17.2,19.2h-5.5v-1.8h-0.9v-0.6h2.3v0.5l-0.8,0v1.1h4.8v-8.2c0-0.9,0.3-1.2,1.3-1.2h2.9c0.8,0,1.1,0.3,1.1,1
		c0,3.2,0,6.3,0,9.5c0,0.7-0.4,1-1.2,1h-2.8c-1,0-1.3-0.3-1.4-1.2C17.2,19.5,17.2,19.4,17.2,19.2z M21.9,20.1V9.9H18v10.2H21.9z"/>
	<path class="st2" d="M12,12.6h1.5c0.5,0,1,0.3,1,0.8c0,0,0,0,0,0c0,0.6,0,1.2,0,1.8c0,0.5-0.4,0.9-0.9,0.9c0,0-0.1,0-0.1,0
		c-1,0-2.1,0-3.1,0c-0.5,0.1-0.9-0.3-1-0.8c0,0,0-0.1,0-0.1c0-0.6,0-1.2,0-1.8c0-0.5,0.4-0.9,1-0.9c0,0,0,0,0,0H12z M10.2,13.2v2.2
		h3.6c0.1-0.7,0.1-1.5,0-2.2H10.2z"/>
	<path class="st2" d="M15.2,14.3c0-0.4,0-0.7,0-1.1c0-0.9-0.6-1.3-1.5-1.3h-3.4c-0.7-0.1-1.4,0.4-1.5,1.1c0,0.1,0,0.2,0,0.3v1H8.1
		c0-0.6,0-1.1,0.1-1.7c0.3-0.8,1-1.4,1.9-1.3c1.3,0,2.5,0,3.8,0c1-0.1,1.9,0.7,2,1.6c0,0.5,0,0.9,0,1.4L15.2,14.3z"/>
	<path class="st2" d="M19.9,13.2c-0.7,0-1.3-0.5-1.3-1.2c0,0,0,0,0,0c0.1-0.7,0.7-1.2,1.4-1.2c0,0,0,0,0,0c0.7,0,1.2,0.5,1.3,1.2
		c0,0.7-0.5,1.2-1.2,1.3C20,13.2,20,13.2,19.9,13.2L19.9,13.2z M20.6,12c0-0.4-0.3-0.6-0.7-0.6c-0.3,0-0.6,0.3-0.7,0.6
		c0,0.4,0.3,0.6,0.7,0.6C20.3,12.6,20.6,12.4,20.6,12C20.6,12,20.6,12,20.6,12z"/>
	<path class="st2" d="M19.9,13.9c0.7,0,1.3,0.5,1.3,1.2c0,0,0,0,0,0c-0.1,0.7-0.8,1.3-1.5,1.2c-0.6-0.1-1.1-0.6-1.2-1.2
		C18.6,14.4,19.2,13.9,19.9,13.9C19.9,13.9,19.9,13.9,19.9,13.9z M19.9,15.8c0.3,0,0.6-0.3,0.6-0.6c0-0.4-0.4-0.6-0.7-0.6
		c-0.3,0-0.5,0.3-0.6,0.6C19.3,15.5,19.6,15.8,19.9,15.8C19.9,15.8,19.9,15.8,19.9,15.8L19.9,15.8z"/>
	<path class="st2" d="M21.3,18.3c0,0.7-0.6,1.3-1.3,1.2c-0.7,0-1.3-0.5-1.4-1.2c0-0.7,0.6-1.2,1.3-1.2
		C20.6,17.1,21.2,17.6,21.3,18.3C21.3,18.3,21.3,18.3,21.3,18.3z M20.6,18.3c0-0.3-0.3-0.6-0.7-0.6c0,0,0,0,0,0
		c-0.3,0-0.6,0.3-0.6,0.6s0.3,0.6,0.6,0.6C20.2,19,20.6,18.7,20.6,18.3C20.6,18.3,20.6,18.3,20.6,18.3L20.6,18.3z"/>
	<path class="st2" d="M12,13.5c0.5,0,1,0.4,1,0.9c-0.1,0.5-0.5,0.9-1,0.9c-0.5,0-0.9-0.4-1-0.9C11,13.9,11.5,13.5,12,13.5
		C12,13.5,12,13.5,12,13.5z M12,14c-0.1,0.2-0.3,0.3-0.3,0.4s0.2,0.3,0.3,0.2c0.1,0,0.3-0.1,0.3-0.3C12.3,14.3,12.1,14.1,12,14z"/>
</g>
</svg>
