<?xml version="1.0" encoding="utf-8"?>
<!-- Generator: Adobe Illustrator 23.0.2, SVG Export Plug-In . SVG Version: 6.00 Build 0)  -->
<svg version="1.1" id="Layer_1" xmlns="http://www.w3.org/2000/svg" xmlns:xlink="http://www.w3.org/1999/xlink" x="0px" y="0px"
	 viewBox="0 0 32 32" style="enable-background:new 0 0 32 32;" xml:space="preserve">
<style type="text/css">
	.st0{fill:#7200CC;}
	.st1{fill:#350089;}
	.st2{fill:#FFFFFF;}
</style>
<title>UAV</title>
<g id="Traffic_Camera">
	<polygon class="st0" points="16,19.5 24.4,0 7.6,0 	"/>
</g>
<g>
	<circle class="st1" cx="16" cy="16" r="10"/>
	<path class="st2" d="M13.2,16.8c-0.4,1.5-2,2.4-3.5,2c-1.1-0.2-1.9-1.1-2.1-2.2c-0.3-1.6,0.7-3.1,2.3-3.4c1.4-0.3,2.8,0.5,3.3,1.9
		c0,0.1,0.1,0.2,0.2,0.2c0,0,0,0,0,0c0.3,0,0.5-0.1,0.7-0.3c0.3-0.3,0.7-0.7,1-1c0.1-0.1,0.1-0.2,0.2-0.3c0.1-0.3,0.1-0.4-0.3-0.6
		c-1.5-0.6-2.2-2.3-1.6-3.8c0.6-1.5,2.3-2.2,3.8-1.6s2.2,2.3,1.6,3.8c-0.3,0.8-1,1.4-1.8,1.7c-0.1,0-0.2,0.1-0.1,0.2
		c0,0.3,0.1,0.5,0.3,0.7c0.3,0.3,0.6,0.6,1,0.9c0.2,0.2,0.5,0.3,0.8,0.2c0.1,0,0.2-0.1,0.2-0.2c0.5-1.5,2.2-2.3,3.7-1.8
		s2.3,2.2,1.8,3.7c-0.3,1-1.2,1.7-2.2,1.9c-1.3,0.2-2.5-0.4-3.1-1.5C19.1,17.1,19,17,19,16.8c0-0.1-0.1-0.1-0.2-0.1
		c-0.3,0-0.6,0.1-0.8,0.3c-0.3,0.3-0.6,0.7-1,1c-0.2,0.2-0.2,0.5-0.2,0.8c0,0,0.1,0.1,0.1,0.1c0.8,0.3,1.5,0.9,1.8,1.8
		c0.6,1.5-0.1,3.2-1.6,3.8c-1.5,0.6-3.2-0.1-3.8-1.6c-0.6-1.5,0.1-3.2,1.6-3.8c0,0,0.1,0,0.1,0c0.1,0,0.2-0.1,0.2-0.2
		c0-0.3,0-0.5-0.2-0.8c-0.3-0.3-0.7-0.7-1-1C13.8,16.8,13.5,16.7,13.2,16.8z M16,13.2L16,13.2L16,13.2c0,0.5-0.2,0.8-0.4,1.1
		c-0.2,0.2-0.5,0.5-0.7,0.7c-0.4,0.4-0.9,0.7-1.5,0.7l0.1,0.2h0.1c0.4,0,0.7,0.1,1,0.4c0.3,0.3,0.6,0.6,0.9,0.9
		c0.2,0.2,0.4,0.5,0.5,0.8c0,0.2,0,0.3,0.1,0.5h0.2c0-0.5,0.2-1.1,0.6-1.4l0.5-0.4c0.4-0.4,0.9-0.7,1.5-0.8l0,0v-0.2
		c-0.5,0-1-0.2-1.4-0.6c-0.2-0.2-0.5-0.5-0.7-0.7c-0.2-0.2-0.4-0.5-0.5-0.9c0-0.1,0-0.3-0.1-0.4L16,13.2z M22.1,18.1
		c1.2-0.2,2-1.3,1.8-2.5c-0.1-0.9-0.9-1.7-1.8-1.8c0,0.4,0,0.8,0,1.1c0,0,0,0.1,0.1,0.1c0.4,0.2,0.6,0.5,0.6,0.9
		c0,0.4-0.2,0.8-0.6,0.9c0,0-0.1,0.1-0.1,0.1C22.1,17.4,22.1,17.8,22.1,18.1L22.1,18.1z M18.2,10c-0.2-1.2-1.3-2-2.5-1.8
		C14.8,8.3,14,9.1,13.9,10H15c0,0,0.1-0.1,0.1-0.1c0.2-0.4,0.5-0.6,0.9-0.6c0.4,0,0.8,0.2,1,0.6c0,0,0,0.1,0.1,0.1H18.2z M13.9,22
		c0.1,1.1,1,1.8,2.1,1.9c1.1,0,2-0.8,2.2-1.9c-0.4,0-0.7,0-1.1,0c0,0-0.1,0.1-0.1,0.1c-0.2,0.4-0.5,0.6-0.9,0.6
		c-0.4,0-0.7-0.2-0.9-0.6c0,0-0.1-0.1-0.1-0.1C14.7,22,14.3,22,13.9,22z M10,18.2c0-0.4,0-0.7,0-1.1c0,0,0-0.1-0.1-0.1
		c-0.4-0.2-0.6-0.6-0.6-1c0-0.4,0.2-0.7,0.6-0.9c0,0,0.1,0,0.1-0.1c0-0.4,0-0.8,0-1.2C9,14,8.2,14.9,8.2,16C8.2,17.1,8.9,18,10,18.2
		z M13.8,10.7c0.1,0.9,0.9,1.7,1.8,1.8c0-0.4,0-0.8,0-1.1c0,0,0-0.1-0.1-0.1c-0.2-0.1-0.4-0.3-0.5-0.5c0,0-0.1-0.1-0.1-0.1H13.8z
		 M15.7,19.5c-0.9,0.1-1.7,0.9-1.8,1.8H15c0.1,0,0.1,0,0.1-0.1c0.1-0.2,0.3-0.4,0.5-0.5c0,0,0.1-0.1,0.1-0.1
		C15.7,20.3,15.7,19.9,15.7,19.5L15.7,19.5z M10.7,13.9c0,0.4,0,0.8,0,1.1c0,0,0,0.1,0.1,0.1c0.2,0.1,0.4,0.3,0.5,0.5
		c0,0,0.1,0.1,0.1,0.1h1.1C12.4,14.8,11.7,14,10.7,13.9L10.7,13.9z M19.5,15.6h1.2c0.1,0,0.1,0,0.1-0.1c0.1-0.2,0.3-0.4,0.5-0.5
		c0,0,0.1-0.1,0.1-0.1c0-0.4,0-0.8,0-1.1C20.5,14,19.7,14.7,19.5,15.6L19.5,15.6z M10.7,18.2c0.9-0.1,1.7-0.9,1.8-1.8h-1.1
		c0,0-0.1,0-0.1,0.1c-0.1,0.2-0.3,0.4-0.5,0.5c0,0-0.1,0.1-0.1,0.1C10.7,17.4,10.7,17.8,10.7,18.2L10.7,18.2z M18.1,10.7
		c-0.4,0-0.7,0-1.1,0c0,0-0.1,0-0.1,0.1c-0.1,0.2-0.3,0.4-0.5,0.5c0,0-0.1,0.1-0.1,0.1v1.1C17.3,12.4,18,11.6,18.1,10.7L18.1,10.7z
		 M16.4,19.5v1.1c0,0,0,0.1,0.1,0.1c0.2,0.1,0.4,0.3,0.5,0.5c0,0,0.1,0.1,0.1,0.1h1.1C18,20.4,17.3,19.7,16.4,19.5L16.4,19.5z
		 M21.3,18.2c0-0.4,0-0.8,0-1.1c0,0,0-0.1-0.1-0.1c0,0-0.3-0.2-0.3-0.3c-0.1-0.3-0.4-0.3-0.6-0.3h-0.8C19.7,17.3,20.4,18,21.3,18.2
		L21.3,18.2z M10.3,15.7c-0.2,0-0.3,0.2-0.3,0.4c0,0.1,0.1,0.3,0.3,0.3c0.2,0,0.3-0.2,0.3-0.3C10.6,15.9,10.5,15.7,10.3,15.7
		L10.3,15.7z M22.1,16c0-0.2-0.1-0.3-0.3-0.3c0,0,0,0,0,0c-0.2,0-0.3,0.1-0.4,0.3c0,0.2,0.2,0.3,0.3,0.3
		C21.9,16.3,22.1,16.2,22.1,16z M16.1,22c0.2,0,0.3-0.1,0.3-0.3c0-0.2-0.2-0.3-0.3-0.3c-0.2,0-0.3,0.2-0.3,0.3
		C15.7,21.8,15.9,22,16.1,22L16.1,22L16.1,22z M16.4,10.3c0-0.2-0.2-0.3-0.4-0.3c-0.2,0-0.3,0.1-0.3,0.3c0,0,0,0,0,0
		c0,0.2,0.1,0.3,0.3,0.3c0,0,0,0,0,0C16.2,10.7,16.4,10.6,16.4,10.3C16.4,10.4,16.4,10.3,16.4,10.3L16.4,10.3z"/>
</g>
</svg>
