<svg xmlns="http://www.w3.org/2000/svg" viewBox="0 0 32 32"><defs><style>.cls-1{fill:#3205d3;}.cls-2{fill:#fff;}</style></defs><title>weather</title><g id="Layer_4" data-name="Layer 4"><circle class="cls-1" cx="16" cy="15" r="10"/><path class="cls-2" d="M11.39,14.6c-1.19-1.75-1.14-3.27.15-4.36s2.8-.89,4.36.59a3.74,3.74,0,0,1,2.78-1.26,3.66,3.66,0,0,1,3.67,3.31.79.79,0,0,0,.4.69,2.62,2.62,0,0,1-1.41,4.77q-4.18,0-8.37,0A2.07,2.07,0,0,1,11,17.14a2.15,2.15,0,0,1,.19-2.31A2,2,0,0,1,11.39,14.6Zm10.12-.66c0-2-.64-3-2.07-3.44a2.81,2.81,0,0,0-1.83.12,2.91,2.91,0,0,0-1.74,2c-1.76-.2-2.48.32-3,2.1l-.19,0A1.37,1.37,0,0,0,13,17.52c2.78,0,5.55,0,8.33,0A1.77,1.77,0,0,0,23,15.27,1.8,1.8,0,0,0,21.51,13.94Zm-6.17-2.21a2,2,0,0,0-2.2-1.33A2.1,2.1,0,0,0,11.39,12a1.91,1.91,0,0,0,.81,2.05A3.12,3.12,0,0,1,15.34,11.73Z"/><path class="cls-2" d="M13.2,21.84c.41-.82.79-1.61,1.2-2.39.06-.1.26-.14.41-.17a2.91,2.91,0,0,1,.53,0L15,20c-.21.41-.41.82-.61,1.23C14,21.91,14,21.91,13.2,21.84Z"/><path class="cls-2" d="M15,21.82c.4-.81.78-1.64,1.24-2.42.1-.16.54-.12.93-.19-.46.91-.82,1.73-1.28,2.5-.11.17-.55.15-.84.21Z"/><path class="cls-2" d="M16.72,21.8c.4-.79.76-1.61,1.22-2.37.1-.17.54-.14.94-.23-.46.93-.83,1.75-1.29,2.51-.1.17-.54.14-.82.21Z"/><path class="cls-2" d="M20.64,19.2c-.47.92-.83,1.74-1.29,2.5-.11.18-.54.16-.82.22l-.06-.11c.4-.8.76-1.62,1.22-2.38C19.8,19.25,20.24,19.28,20.64,19.2Z"/><path class="cls-2" d="M13.06,7.33h.78V8.74h-.78Z"/><path class="cls-2" d="M11.93,9.05l-.69.4-.72-1.24.68-.41Z"/><path class="cls-2" d="M15.61,9.47l-.68-.41.72-1.26.69.4Z"/><path class="cls-2" d="M10.43,10.26l-.4.68-1.24-.71.39-.69Z"/><path class="cls-2" d="M10,14l.4.69-1.23.71-.41-.68Z"/><path class="cls-2" d="M8.35,12.07H9.71v.73H8.35Z"/></g></svg>